PERFORMER "Test"
TITLE "Four Splits Test"
FILE "ten_minute.mp3" MP3
  TRACK 01 AUDIO
    PERFORMER "I'm First"
    TITLE "Always First"
    INDEX 01 00:00:00
  TRACK 02 AUDIO
    PERFORMER "Derp Man"
    TITLE "36 Second Track"
    INDEX 01 00:36:71
  TRACK 03 AUDIO
    PERFORMER "Herp Woman"
    TITLE "Two Minute 50 Second Track"
    INDEX 01 02:50:42
  TRACK 04 AUDIO
    PERFORMER "Test Artist"
    TITLE "Testing Unicode"
    INDEX 01 10:00:00
